<svg xmlns="http://www.w3.org/2000/svg" viewBox="0 0 256 256" width="256" height="256">
  <defs>
    <linearGradient id="sky" x1="0" y1="0" x2="0" y2="1">
      <stop offset="0" stop-color="#2a3170"/>
      <stop offset="0.65" stop-color="#161a3d"/>
      <stop offset="1" stop-color="#0b0d1f"/>
    </linearGradient>
    <linearGradient id="glow" x1="0" y1="0" x2="0" y2="1">
      <stop offset="0" stop-color="#ffd166" stop-opacity="0.55"/>
      <stop offset="1" stop-color="#ffd166" stop-opacity="0"/>
    </linearGradient>
  </defs>
  <rect x="8" y="8" width="240" height="240" rx="48" fill="url(#sky)"/>
  <rect x="8" y="8" width="240" height="240" rx="48" fill="none" stroke="#4cc9f0" stroke-opacity="0.35" stroke-width="6"/>
  <circle cx="186" cy="70" r="22" fill="#ffd166"/>
  <circle cx="186" cy="70" r="38" fill="url(#glow)"/>
  <!-- skyline of blocks -->
  <rect x="34" y="120" width="40" height="92" rx="5" fill="#ef476f"/>
  <rect x="80" y="84" width="46" height="128" rx="5" fill="#06d6a0"/>
  <rect x="132" y="104" width="38" height="108" rx="5" fill="#4cc9f0"/>
  <rect x="176" y="136" width="46" height="76" rx="5" fill="#9b5de5"/>
  <rect x="94" y="62" width="18" height="26" rx="3" fill="#06d6a0"/>
  <!-- windows -->
  <g fill="#fff6d5">
    <rect x="44" y="134" width="8" height="10" rx="1.5"/><rect x="58" y="134" width="8" height="10" rx="1.5"/>
    <rect x="44" y="156" width="8" height="10" rx="1.5"/><rect x="58" y="156" width="8" height="10" rx="1.5" opacity="0.45"/>
    <rect x="90" y="100" width="9" height="11" rx="1.5"/><rect x="107" y="100" width="9" height="11" rx="1.5" opacity="0.45"/>
    <rect x="90" y="124" width="9" height="11" rx="1.5" opacity="0.45"/><rect x="107" y="124" width="9" height="11" rx="1.5"/>
    <rect x="90" y="148" width="9" height="11" rx="1.5"/><rect x="107" y="148" width="9" height="11" rx="1.5"/>
    <rect x="141" y="118" width="8" height="10" rx="1.5"/><rect x="154" y="118" width="8" height="10" rx="1.5"/>
    <rect x="141" y="140" width="8" height="10" rx="1.5" opacity="0.45"/><rect x="154" y="140" width="8" height="10" rx="1.5"/>
    <rect x="186" y="150" width="9" height="10" rx="1.5"/><rect x="203" y="150" width="9" height="10" rx="1.5" opacity="0.45"/>
    <rect x="186" y="172" width="9" height="10" rx="1.5" opacity="0.45"/><rect x="203" y="172" width="9" height="10" rx="1.5"/>
  </g>
  <!-- ground / road -->
  <rect x="24" y="208" width="208" height="16" rx="6" fill="#ffd166"/>
  <rect x="44" y="214" width="22" height="4" rx="2" fill="#5c3f00"/><rect x="96" y="214" width="22" height="4" rx="2" fill="#5c3f00"/>
  <rect x="148" y="214" width="22" height="4" rx="2" fill="#5c3f00"/><rect x="198" y="214" width="16" height="4" rx="2" fill="#5c3f00"/>
</svg>
